<?xml version="1.0" standalone="no"?><!DOCTYPE svg PUBLIC "-//W3C//DTD SVG 1.1//EN" "http://www.w3.org/Graphics/SVG/1.1/DTD/svg11.dtd"><svg t="1568193288441" class="icon" viewBox="0 0 1024 1024" version="1.1" xmlns="http://www.w3.org/2000/svg" p-id="1620" xmlns:xlink="http://www.w3.org/1999/xlink" width="200" height="200"><defs><style type="text/css"></style></defs><path d="M791.272727 1000.727273H232.727273a162.909091 162.909091 0 0 1-162.909091-162.909091V186.181818a162.909091 162.909091 0 0 1 162.909091-162.909091h558.545454a162.909091 162.909091 0 0 1 162.909091 162.909091v651.636364a162.909091 162.909091 0 0 1-162.909091 162.909091zM232.727273 69.818182a116.363636 116.363636 0 0 0-116.363637 116.363636v651.636364a116.363636 116.363636 0 0 0 116.363637 116.363636h558.545454a116.363636 116.363636 0 0 0 116.363637-116.363636V186.181818a116.363636 116.363636 0 0 0-116.363637-116.363636z" fill="#ffffff" p-id="1621"></path><path d="M721.454545 535.272727h-139.636363a93.090909 93.090909 0 0 1-93.090909-93.090909v-139.636363a93.090909 93.090909 0 0 1 93.090909-93.09091h139.636363a93.090909 93.090909 0 0 1 93.09091 93.09091v139.636363a93.090909 93.090909 0 0 1-93.09091 93.090909z m-139.636363-279.272727a46.545455 46.545455 0 0 0-46.545455 46.545455v139.636363a46.545455 46.545455 0 0 0 46.545455 46.545455h139.636363a46.545455 46.545455 0 0 0 46.545455-46.545455v-139.636363a46.545455 46.545455 0 0 0-46.545455-46.545455zM232.727273 209.454545h139.636363v46.545455h-139.636363zM232.727273 349.090909h139.636363v46.545455h-139.636363zM232.727273 488.727273h139.636363v46.545454h-139.636363zM232.727273 628.363636h558.545454v46.545455H232.727273zM232.727273 768h349.090909v46.545455H232.727273z" fill="#ffffff" p-id="1622"></path></svg>