<?xml version="1.0" standalone="no"?><!DOCTYPE svg PUBLIC "-//W3C//DTD SVG 1.1//EN" "http://www.w3.org/Graphics/SVG/1.1/DTD/svg11.dtd"><svg t="1568196137497" class="icon" viewBox="0 0 1025 1024" version="1.1" xmlns="http://www.w3.org/2000/svg" p-id="3172" xmlns:xlink="http://www.w3.org/1999/xlink" width="200.1953125" height="200"><defs><style type="text/css"></style></defs><path d="M0 556.40064c0 46.40768 4.34176 88.3712 13.02528 125.93152s20.70528 70.18496 36.0448 97.8944 34.87744 52.08064 58.59328 73.1136c23.69536 21.03296 49.39776 38.21568 77.1072 51.56864s59.33056 24.20736 94.88384 32.54272c35.55328 8.35584 71.86432 14.19264 108.91264 17.53088s77.78304 4.99712 122.18368 4.99712c44.72832 0 85.62688-1.65888 122.6752-4.99712s73.44128-9.17504 109.1584-17.53088 67.50208-19.18976 95.39584-32.54272c27.87328-13.35296 53.73952-30.53568 77.6192-51.56864s43.56096-45.40416 59.0848-73.1136 27.62752-60.33408 36.31104-97.8944c8.68352-37.56032 13.02528-79.54432 13.02528-125.93152 0-82.78016-27.70944-154.39872-83.10784-214.81472 3.01056-8.00768 5.75488-17.1008 8.25344-27.29984s4.83328-24.69888 7.00416-43.56096c2.17088-18.86208 1.3312-40.63232-2.49856-65.35168s-10.93632-49.90976-21.27872-75.61216l-7.51616-1.49504c-5.34528-1.00352-14.11072-0.75776-26.29632 0.75776s-26.37824 4.5056-42.55744 9.0112c-16.19968 4.5056-37.04832 13.18912-62.58688 26.03008s-52.49024 28.95872-80.87552 48.31232c-48.7424-13.35296-115.67104-20.02944-200.78592-20.02944-84.7872 0-151.552 6.67648-200.2944 20.02944-28.38528-19.3536-55.5008-35.47136-81.36704-48.31232s-46.4896-21.52448-61.8496-26.03008c-15.36-4.5056-29.71648-7.43424-43.06944-8.76544s-21.79072-1.76128-25.2928-1.24928-6.26688 1.08544-8.25344 1.76128c-10.3424 25.7024-17.44896 50.91328-21.27872 75.61216s-4.66944 46.4896-2.49856 65.35168 4.5056 33.3824 7.00416 43.56096c2.49856 10.17856 5.26336 19.27168 8.25344 27.29984-55.41888 60.416-83.12832 132.03456-83.12832 214.81472zM125.68576 682.0864c0-48.06656 21.87264-92.13952 65.59744-132.1984 13.02528-12.02176 28.20096-21.11488 45.568-27.29984s36.9664-9.68704 58.83904-10.50624c21.87264-0.83968 42.8032-0.67584 62.83264 0.512s44.72832 2.74432 74.11712 4.75136c29.36832 2.00704 54.74304 3.01056 76.10368 3.01056s46.73536-1.00352 76.10368-3.01056c29.36832-2.00704 54.08768-3.584 74.11712-4.75136s40.98048-1.3312 62.83264-0.512c21.87264 0.83968 41.472 4.34176 58.83904 10.50624s32.54272 15.27808 45.568 27.29984c43.7248 39.40352 65.59744 83.456 65.59744 132.1984 0 28.71296-3.584 54.1696-10.77248 76.36992s-16.36352 40.81664-27.5456 55.82848-26.70592 27.79136-46.57152 38.2976c-19.8656 10.50624-39.2192 18.61632-58.08128 24.28928s-43.06944 10.09664-72.6016 13.27104c-29.55264 3.1744-55.9104 5.09952-79.11424 5.75488s-52.65408 1.00352-88.3712 1.00352-65.18784-0.32768-88.3712-1.00352c-23.20384-0.67584-49.58208-2.58048-79.11424-5.75488s-53.73952-7.59808-72.6016-13.27104c-18.86208-5.67296-38.21568-13.78304-58.08128-24.28928s-35.38944-23.28576-46.57152-38.2976c-11.18208-15.01184-20.35712-33.62816-27.5456-55.82848s-10.77248-47.65696-10.77248-76.36992zM640 672.01024c0-53.02272 28.65152-96.01024 64-96.01024s64 42.98752 64 96.01024c0 53.02272-28.65152 96.01024-64 96.01024s-64-42.98752-64-96.01024zM256 672.01024c0-53.02272 28.65152-96.01024 64-96.01024s64 42.98752 64 96.01024c0 53.02272-28.65152 96.01024-64 96.01024s-64-42.98752-64-96.01024z" p-id="3173" data-spm-anchor-id="a313x.7781069.0.i8" class="selected" fill="#ffffff"></path></svg>