<?xml version="1.0" standalone="no"?><!DOCTYPE svg PUBLIC "-//W3C//DTD SVG 1.1//EN" "http://www.w3.org/Graphics/SVG/1.1/DTD/svg11.dtd"><svg t="1575026456653" class="icon" viewBox="0 0 1024 1024" version="1.1" xmlns="http://www.w3.org/2000/svg" p-id="15945" xmlns:xlink="http://www.w3.org/1999/xlink" width="200" height="200"><defs><style type="text/css"></style></defs><path d="M912.1 178.6v233.3c0 9-3.3 16.9-9.9 23.4-6.6 6.6-14.5 9.9-23.4 9.9H645.5c-14.6 0-24.9-6.9-30.8-20.8-5.9-13.6-3.5-25.5 7.3-35.9l71.9-71.9c-51.5-47.5-112-71.3-181.8-71.3-36.1 0-70.5 7-103.4 21.1-32.9 14-61.2 33.1-85.1 57.1s-42.9 52.4-57.1 85.1c-14 32.9-21.1 67.3-21.1 103.4s7 70.5 21.1 103.4c14 32.9 33.1 61.2 57.1 85.1 24 24 52.4 42.9 85.1 57.1 32.9 14 67.3 21.1 103.4 21.1 41.3 0 80.4-9 117.2-27.1s67.9-43.6 93.2-76.6c2.4-3.5 6.5-5.6 11.9-6.2 5.3 0 9.5 1.5 13 4.7l71.3 71.9c3.2 2.7 4.8 6.4 4.9 10.6 0.2 4.4-1.1 8.2-3.9 11.7-37.9 45.8-83.7 81.3-137.4 106.5-53.8 25.2-110.7 37.8-170.4 37.8-54.1 0-105.9-10.6-155.2-31.8s-91.8-49.6-127.6-85.4c-35.8-35.7-64.2-78.3-85.4-127.6-21.1-49.3-31.8-101-31.8-155.2 0-54.1 10.6-105.9 31.8-155.2s49.6-91.8 85.4-127.6c35.7-35.7 78.3-64.2 127.6-85.4 49.3-21.1 101-31.8 155.2-31.8 51 0 100.4 9.6 148.2 28.9 47.8 19.3 90.1 46.4 127.4 81.5l67.7-67.1c10.1-10.7 22.2-13.1 36.5-7.3 13.6 5.8 20.4 16 20.4 30.6z" p-id="15946" fill="#ffffff"></path></svg>