<?xml version="1.0" standalone="no"?><!DOCTYPE svg PUBLIC "-//W3C//DTD SVG 1.1//EN" "http://www.w3.org/Graphics/SVG/1.1/DTD/svg11.dtd"><svg t="1568195862426" class="icon" viewBox="0 0 1024 1024" version="1.1" xmlns="http://www.w3.org/2000/svg" p-id="1144" xmlns:xlink="http://www.w3.org/1999/xlink" width="200" height="200"><defs><style type="text/css"></style></defs><path d="M584.145455 989.090909a162.909091 162.909091 0 0 1-116.363637-48.872727L55.854545 535.272727A97.745455 97.745455 0 0 1 23.272727 467.781818V116.363636c0-53.527273 53.527273-81.454545 104.727273-81.454545h351.418182a88.436364 88.436364 0 0 1 67.490909 20.945454l404.945454 402.618182a160.581818 160.581818 0 0 1 0 230.4L700.509091 940.218182a162.909091 162.909091 0 0 1-116.363636 48.872727zM128 81.454545C104.727273 81.454545 69.818182 93.090909 69.818182 116.363636v351.418182a58.181818 58.181818 0 0 0 20.945454 34.909091L500.363636 907.636364a118.690909 118.690909 0 0 0 167.563637 0l251.345454-251.345455a116.363636 116.363636 0 0 0 0-165.236364L514.327273 90.763636a46.545455 46.545455 0 0 0-34.909091-6.981818z" fill="#ffffff" p-id="1145"></path><path d="M307.2 460.8a141.963636 141.963636 0 1 1 141.963636-141.963636 141.963636 141.963636 0 0 1-141.963636 141.963636z m0-237.381818a95.418182 95.418182 0 1 0 95.418182 95.418182 95.418182 95.418182 0 0 0-95.418182-95.418182zM502.062545 522.519273l32.93091-32.907637 189.067636 189.090909-32.907636 32.907637z" fill="#ffffff" p-id="1146"></path></svg>